<svg width="14" height="14" viewBox="0 0 14 14" fill="none" xmlns="http://www.w3.org/2000/svg">
<path d="M0.145396 0.146649C0.191833 0.100162 0.246977 0.063282 0.307676 0.0381193C0.368375 0.0129576 0.433439 5.72205e-06 0.499146 5.72205e-06C0.564854 5.72205e-06 0.629917 0.0129576 0.690616 0.0381193C0.751315 0.063282 0.80646 0.100162 0.852896 0.146649L6.9979 6.29165L13.1454 0.146649C13.2392 0.0528288 13.3665 0.000121117 13.4991 0.000121117C13.6318 0.000121117 13.7591 0.0528288 13.8529 0.146649C13.9467 0.24047 13.9994 0.367718 13.9994 0.5004C13.9994 0.633081 13.9467 0.760328 13.8529 0.854149L7.7054 6.99915L13.8504 13.1466C13.9442 13.2405 13.9969 13.3677 13.9969 13.5004C13.9969 13.6331 13.9442 13.7603 13.8504 13.8541C13.7566 13.948 13.6293 14.0007 13.4966 14.0007C13.364 14.0007 13.2367 13.948 13.1429 13.8541L6.9979 7.70665L0.850396 13.8516C0.754745 13.9336 0.631708 13.9764 0.50587 13.9715C0.380032 13.9666 0.260662 13.9145 0.171615 13.8254C0.0825674 13.7364 0.0304013 13.617 0.0255407 13.4912C0.0206801 13.3653 0.0634832 13.2423 0.145396 13.1466L6.2904 6.99915L0.145396 0.851649C0.0522709 0.757968 0 0.631242 0 0.499149C0 0.367057 0.0522709 0.240331 0.145396 0.146649Z" fill="#333333"/>
</svg>
