<svg width="20" height="20" viewBox="0 0 20 20" fill="none" xmlns="http://www.w3.org/2000/svg">
<path d="M18.6364 8.18184H11.8182V1.36364C11.8182 0.610908 11.2073 0 10.4545 0H9.54548C8.79275 0 8.18184 0.610908 8.18184 1.36364V8.18184H1.36364C0.610908 8.18184 0 8.79275 0 9.54548V10.4545C0 11.2073 0.610908 11.8182 1.36364 11.8182H8.18184V18.6364C8.18184 19.3891 8.79275 20 9.54548 20H10.4545C11.2073 20 11.8182 19.3891 11.8182 18.6364V11.8182H18.6364C19.3891 11.8182 20 11.2073 20 10.4545V9.54548C20 8.79275 19.3891 8.18184 18.6364 8.18184Z" fill="white"/>
</svg>
