<svg width="45" height="40" viewBox="0 0 45 40" fill="none" xmlns="http://www.w3.org/2000/svg">
<path d="M35.9727 19.4235C35.87 19.3913 35.7712 19.3832 35.6755 19.399C35.4695 19.4331 35.3011 19.5421 35.1692 19.7267L33.9015 21.4966C33.7831 21.6626 33.7405 21.8482 33.7746 22.0541L34.7714 28.0813C34.9441 29.1257 34.7209 30.0805 34.0999 30.9475C33.4794 31.814 32.6468 32.3336 31.6026 32.5063L11.8582 35.7718C10.8139 35.9445 9.85849 35.7206 8.99202 35.1C8.12533 34.4792 7.60593 33.6472 7.43319 32.6027L4.1678 12.8588C3.99511 11.8147 4.2189 10.8594 4.83956 9.99261C5.46009 9.12606 6.29256 8.6065 7.33687 8.43379L27.0814 5.16829C27.4295 5.11072 27.7933 5.09932 28.1728 5.13415C28.273 5.14986 28.3468 5.15413 28.3937 5.14638C28.5996 5.11231 28.7686 5.00333 28.9006 4.81901L29.8711 3.46385C30.0294 3.24288 30.0629 3.00149 29.9706 2.74068C29.8813 2.49535 29.7086 2.33689 29.453 2.26551C28.5339 2.01173 27.5751 1.96647 26.5784 2.13131L6.83457 5.3967C4.95192 5.70806 3.45262 6.64276 2.33683 8.20075C1.22124 9.75889 0.818998 11.479 1.13038 13.3618L4.39586 33.1062C4.70718 34.9886 5.64186 36.4878 7.19978 37.6036C8.75783 38.7197 10.4782 39.1219 12.3609 38.8105L32.1052 35.5451C33.9876 35.2337 35.487 34.299 36.6028 32.7407C37.7186 31.1827 38.1214 29.4623 37.8101 27.5799L36.5619 20.0329C36.5068 19.7009 36.3099 19.498 35.9727 19.4235Z" fill="#333333"/>
<path d="M39.6768 4.81659L36.6343 2.63767C36.1918 2.32086 35.7092 2.20564 35.187 2.29201C34.6654 2.37827 34.2453 2.64279 33.9288 3.08513L21.1138 20.9787L13.8407 15.7696C13.3981 15.4525 12.9157 15.3375 12.3938 15.4238C11.8718 15.5102 11.4523 15.7743 11.1353 16.217L8.95664 19.2591C8.63974 19.7016 8.52432 20.184 8.61069 20.7062C8.69703 21.2282 8.9616 21.6477 9.40411 21.9647L21.2961 30.4813C21.7387 30.7985 22.2211 30.9134 22.743 30.8271C23.2649 30.7408 23.6845 30.4767 24.0015 30.0339L40.1239 7.52191C40.4406 7.07955 40.5562 6.59699 40.4699 6.07501C40.3836 5.55302 40.1192 5.1334 39.6768 4.81659Z" fill="#333333"/>
</svg>
